<svg width="196" height="28" viewBox="0 0 196 28" fill="none" xmlns="http://www.w3.org/2000/svg">
<g clip-path="url(#clip0_14427_5597)">
<mask id="mask0_14427_5597" style="mask-type:luminance" maskUnits="userSpaceOnUse" x="0" y="0" width="28" height="28">
<path d="M22.75 0H5.25C2.35051 0 0 2.35051 0 5.25V22.75C0 25.6495 2.35051 28 5.25 28H22.75C25.6495 28 28 25.6495 28 22.75V5.25C28 2.35051 25.6495 0 22.75 0Z" fill="white"/>
</mask>
<g mask="url(#mask0_14427_5597)">
<path d="M0 28H28V0H0V28Z" fill="#006FCF"/>
<path d="M10.1431 23.5695L21.2145 23.5929L22.9532 21.6531L24.7046 23.5857H27.9998V20.7554L25.9359 18.5296L27.9998 16.324V13.5527L10.1431 13.5366V23.5695Z" fill="white"/>
<path fill-rule="evenodd" clip-rule="evenodd" d="M11.3359 22.4696V14.6407H17.974V16.4442H13.4851V17.6684H17.867V19.442H13.4851V20.6444H17.974V22.4696H11.3359Z" fill="#006FCF"/>
<path d="M25.2789 14.6407L23.028 17.1221L20.7835 14.6407H17.9404L21.6136 18.5506L17.9405 22.4695H20.7063L22.9672 19.9632L25.2514 22.4695H27.9997V22.3584L24.4048 18.5506L27.9997 14.7024V14.6407H25.2789Z" fill="#006FCF"/>
<path d="M23.9421 4.63147L23.0227 7.20351L22.1064 4.63147H16.7923V8.0644L15.2804 4.63147H10.976L6.55518 14.6644H27.9999V4.63147H23.9421Z" fill="white"/>
<path fill-rule="evenodd" clip-rule="evenodd" d="M12.0891 10.2219L13.1308 7.7318L14.1718 10.2219H12.0891ZM11.7905 5.72156L8.31689 13.5438H10.6994L11.3547 11.9774H14.9057L15.5606 13.5438H18.0023L14.5431 5.72156H11.7905Z" fill="#006FCF"/>
<path d="M17.9697 13.5424L20.0761 13.5424V8.16934L22.0746 13.5424H23.9677L25.9255 8.18758V13.5607L27.9994 13.5424V5.72026H24.7764L23.0419 10.5407L21.3188 5.73179L17.9697 5.72021V13.5424Z" fill="#006FCF"/>
</g>
<path d="M42.4228 17.1762L42.8367 15.295H48.9508L49.3835 17.1762H42.4228ZM45.8655 11.1186L43.7961 15.9534L43.7585 16.4425L41.9337 20.5625H39.4316L45.8655 6.66003L52.2994 20.5625H49.7973L48.0101 16.5554L47.9537 16.0098L45.8655 11.1186ZM60.0394 12.5483L59.1364 20.5625H56.8413L58.6473 6.73528L64.0465 15.6712L69.4645 6.73528L71.2705 20.5625H68.9754L68.0536 12.5483L64.0465 19.3397L60.0394 12.5483ZM78.5658 20.5625V18.606H85.2066V20.5625H78.5658ZM78.5658 9.35022V7.39372H85.2066V9.35022H78.5658ZM78.5658 14.4672V12.5483H84.8304V14.4672H78.5658ZM77.1925 7.39372H79.3747V20.5625H77.1925V7.39372ZM98.5313 7.39372H101.24L97.2521 13.7147L101.523 20.5625H98.8135L95.9916 15.5019L93.0757 20.5625H90.3855L94.75 13.7147L90.8558 7.39372H93.546L96.0105 11.8523L98.5313 7.39372ZM106.817 7.39372H110.09V20.5625H106.817V7.39372ZM111.52 20.5625H108.924V17.7406H111.407C111.909 17.7406 112.392 17.6779 112.856 17.5525C113.332 17.4271 113.746 17.2201 114.097 16.9317C114.461 16.6432 114.749 16.2607 114.963 15.7841C115.176 15.295 115.283 14.693 115.283 13.9781C115.283 13.2632 115.176 12.6675 114.963 12.1909C114.749 11.7018 114.461 11.313 114.097 11.0245C113.746 10.7361 113.332 10.5291 112.856 10.4037C112.392 10.2783 111.909 10.2156 111.407 10.2156H108.924V7.39372H111.52C112.962 7.39372 114.21 7.66338 115.264 8.20266C116.317 8.74194 117.132 9.50072 117.709 10.479C118.286 11.4572 118.575 12.6236 118.575 13.9781C118.575 15.3201 118.286 16.4864 117.709 17.4772C117.132 18.4555 116.317 19.2143 115.264 19.7535C114.21 20.2928 112.962 20.5625 111.52 20.5625ZM124.376 7.39372H127.612V20.5625H124.376V7.39372ZM143.251 7.39372H146.318V21.2209L137.212 13.1503V20.5625H134.165V6.73528L143.251 14.8058V7.39372ZM152.863 7.39372H156.099V20.5625H152.863V7.39372ZM171.738 7.39372H174.805V21.2209L165.699 13.1503V20.5625H162.652V6.73528L171.738 14.8058V7.39372ZM187.878 15.8029V13.3573H194.538C194.601 14.4108 194.494 15.3953 194.218 16.3108C193.942 17.2264 193.516 18.0353 192.939 18.7377C192.362 19.44 191.641 19.9918 190.775 20.3932C189.91 20.7819 188.919 20.9763 187.803 20.9763C186.749 20.9763 185.784 20.8133 184.906 20.4872C184.028 20.1486 183.269 19.672 182.63 19.0575C181.99 18.4304 181.488 17.6904 181.125 16.8376C180.773 15.9722 180.598 15.0191 180.598 13.9781C180.598 12.9371 180.78 11.9965 181.143 11.1562C181.507 10.3034 182.021 9.57597 182.686 8.97397C183.351 8.37197 184.128 7.90794 185.019 7.58185C185.909 7.25576 186.875 7.09272 187.916 7.09272C188.844 7.09272 189.678 7.22441 190.418 7.48778C191.158 7.75116 191.81 8.12113 192.374 8.59772C192.951 9.06176 193.447 9.60106 193.861 10.2156L191.039 11.683C190.738 11.1562 190.33 10.7235 189.816 10.3849C189.314 10.0337 188.681 9.85816 187.916 9.85816C187.189 9.85816 186.518 10.0212 185.903 10.3473C185.301 10.6734 184.818 11.1437 184.454 11.7582C184.103 12.3602 183.928 13.1002 183.928 13.9781C183.928 14.8435 184.097 15.596 184.436 16.2356C184.787 16.8627 185.257 17.3518 185.846 17.703C186.448 18.0416 187.138 18.2109 187.916 18.2109C188.393 18.2109 188.825 18.1545 189.214 18.0416C189.603 17.9162 189.935 17.7469 190.211 17.5337C190.487 17.3079 190.719 17.0508 190.907 16.7623C191.108 16.4613 191.264 16.1415 191.377 15.8029H187.878Z" fill="#006FCF"/>
</g>
<defs>
<clipPath id="clip0_14427_5597">
<rect width="195.344" height="28" fill="white"/>
</clipPath>
</defs>
</svg>
