<svg width="822" height="128" viewBox="0 0 822 128" fill="none" xmlns="http://www.w3.org/2000/svg">
<g clip-path="url(#clip0_14424_5596)">
<path d="M0.000488281 128H128V0.000244141H0.000488281V128Z" fill="#006FCF"/>
<path d="M52.0005 82.0002L31.0005 94.0002V46.0002L52.0005 34.0002M52.0005 82.0002L76.0005 94.0002M52.0005 82.0002V34.0002M76.0005 94.0002L97.0005 82.0002V34.0002L76.0005 46.0002M76.0005 94.0002V46.0002M76.0005 46.0002L52.0005 34.0002" stroke="#F3F3F3" stroke-width="6" stroke-linecap="round" stroke-linejoin="round"/>
</g>
<path d="M186.708 33.8H197.028V94H186.708V33.8ZM206.144 94H192.986V84.454H205.886C208.867 84.454 211.619 84.024 214.142 83.164C216.665 82.304 218.843 81.014 220.678 79.294C222.57 77.574 224.032 75.424 225.064 72.844C226.153 70.264 226.698 67.2827 226.698 63.9C226.698 60.5173 226.153 57.536 225.064 54.956C224.032 52.376 222.57 50.226 220.678 48.506C218.843 46.786 216.665 45.496 214.142 44.636C211.619 43.776 208.867 43.346 205.886 43.346H192.986V33.8H206.144C212.279 33.8 217.668 35.0613 222.312 37.584C226.956 40.0493 230.568 43.5467 233.148 48.076C235.785 52.548 237.104 57.8227 237.104 63.9C237.104 69.9773 235.785 75.2807 233.148 79.81C230.568 84.282 226.956 87.7793 222.312 90.302C217.668 92.7673 212.279 94 206.144 94ZM264.209 33.8H274.443V94H264.209V33.8ZM349.038 33.8H359.014V97.01L315.068 53.58V94H305.092V30.79L349.038 74.22V33.8ZM389.564 33.8H399.798V94H389.564V33.8ZM474.393 33.8H484.369V97.01L440.423 53.58V94H430.447V30.79L474.393 74.22V33.8ZM543.557 71.124V62.524H572.539C572.654 66.9387 572.08 71.124 570.819 75.08C569.558 78.9787 567.666 82.4473 565.143 85.486C562.62 88.5247 559.467 90.9327 555.683 92.71C551.956 94.43 547.714 95.29 542.955 95.29C538.426 95.29 534.24 94.5447 530.399 93.054C526.558 91.506 523.204 89.3273 520.337 86.518C517.528 83.7087 515.349 80.3833 513.801 76.542C512.253 72.7007 511.479 68.4867 511.479 63.9C511.479 59.3133 512.253 55.128 513.801 51.344C515.406 47.5027 517.614 44.206 520.423 41.454C523.29 38.6447 526.644 36.4947 530.485 35.004C534.384 33.5133 538.598 32.768 543.127 32.768C547.083 32.768 550.666 33.3127 553.877 34.402C557.088 35.434 559.954 36.9533 562.477 38.96C565.057 40.9093 567.236 43.2887 569.013 46.098L560.757 51.602C559.094 48.7353 556.772 46.442 553.791 44.722C550.867 43.002 547.312 42.142 543.127 42.142C539.228 42.142 535.702 43.0593 532.549 44.894C529.396 46.6713 526.873 49.194 524.981 52.462C523.089 55.6727 522.143 59.4853 522.143 63.9C522.143 68.2573 523.06 72.0987 524.895 75.424C526.787 78.692 529.31 81.2433 532.463 83.078C535.616 84.9127 539.171 85.83 543.127 85.83C545.822 85.83 548.23 85.4573 550.351 84.712C552.472 83.9667 554.307 82.906 555.855 81.53C557.403 80.154 558.693 78.5773 559.725 76.8C560.757 75.0227 561.531 73.1307 562.047 71.124H543.557ZM615.282 63.298L611.67 94H596.362L606.08 30.79L631.708 67.512L657.422 30.79L667.14 94H651.832L648.22 63.298L631.708 88.41L615.282 63.298ZM703.056 82.39L704.088 71.296H733.93L734.876 82.39H703.056ZM718.794 55.902L710.366 75.338L711.054 78.52L703.572 94H687.146L718.794 30.016L750.528 94H734.016L726.792 79.122L727.308 75.424L718.794 55.902ZM774.036 33.8H788.57V94H774.036V33.8ZM783.152 45.754V33.8H794.934C800.037 33.8 804.308 34.6027 807.748 36.208C811.246 37.756 813.883 39.992 815.66 42.916C817.438 45.84 818.326 49.366 818.326 53.494C818.326 57.5073 817.438 61.0047 815.66 63.986C813.883 66.91 811.246 69.1747 807.748 70.78C804.308 72.328 800.037 73.102 794.934 73.102H783.152V61.148H794.934C797.858 61.148 800.152 60.4887 801.814 59.17C803.477 57.8513 804.308 55.9593 804.308 53.494C804.308 50.9713 803.477 49.0507 801.814 47.732C800.152 46.4133 797.858 45.754 794.934 45.754H783.152Z" fill="#006FCF"/>
<defs>
<clipPath id="clip0_14424_5596">
<rect width="128" height="128" rx="24" fill="white"/>
</clipPath>
</defs>
</svg>
